HIERARCHY
ROOT joint_Root
{
  OFFSET 0 0 0
  CHANNELS 6 Xposition Yposition Zposition Zrotation Xrotation Yrotation
  JOINT Hips
  {
    OFFSET 0.847027 93.984 -452.225
    CHANNELS 6 Xposition Yposition Zposition Zrotation Xrotation Yrotation
    JOINT Spine
    {
      OFFSET 15.7357 0 0
      CHANNELS 6 Xposition Yposition Zposition Zrotation Xrotation Yrotation
      JOINT Chest
      {
        OFFSET 8.98455 -0.406207 0
        CHANNELS 6 Xposition Yposition Zposition Zrotation Xrotation Yrotation
        JOINT Neck
        {
          OFFSET 16.3773 0 0
          CHANNELS 6 Xposition Yposition Zposition Zrotation Xrotation Yrotation
          JOINT Head
          {
            OFFSET 6.45672 0 0
            CHANNELS 6 Xposition Yposition Zposition Zrotation Xrotation Yrotation
            End Site
            {
              OFFSET 0 0 0
            }
          }
        }
        JOINT Shoulder_L
        {
          OFFSET 12.9942 -0.242716 4.98039
          CHANNELS 6 Xposition Yposition Zposition Zrotation Xrotation Yrotation
          JOINT UpperArm_L
          {
            OFFSET 5.34809 0 0
            CHANNELS 6 Xposition Yposition Zposition Zrotation Xrotation Yrotation
            JOINT LowerArm_L
            {
              OFFSET 24.3286 1.87007e-05 0
              CHANNELS 6 Xposition Yposition Zposition Zrotation Xrotation Yrotation
              JOINT Hand_L
              {
                OFFSET 22.2916 0 0
                CHANNELS 6 Xposition Yposition Zposition Zrotation Xrotation Yrotation
                End Site
                {
                  OFFSET 0 0 0
                }
              }
            }
          }
        }
        JOINT Shoulder_R
        {
          OFFSET 12.9945 -0.242716 -4.98039
          CHANNELS 6 Xposition Yposition Zposition Zrotation Xrotation Yrotation
          JOINT UpperArm_R
          {
            OFFSET -5.34813 0 0
            CHANNELS 6 Xposition Yposition Zposition Zrotation Xrotation Yrotation
            JOINT LowerArm_R
            {
              OFFSET -24.3289 0.000322201 0
              CHANNELS 6 Xposition Yposition Zposition Zrotation Xrotation Yrotation
              JOINT Hand_R
              {
                OFFSET -22.2915 -0.000108084 0
                CHANNELS 6 Xposition Yposition Zposition Zrotation Xrotation Yrotation
                End Site
                {
                  OFFSET 0 0 0
                }
              }
            }
          }
        }
      }
    }
    JOINT UpperLeg_L
    {
      OFFSET -2.19248 -6.46944 0
      CHANNELS 6 Xposition Yposition Zposition Zrotation Xrotation Yrotation
      JOINT LowerLeg_L
      {
        OFFSET 39.0811 0 -1.23785e-05
        CHANNELS 6 Xposition Yposition Zposition Zrotation Xrotation Yrotation
        JOINT Foot_L
        {
          OFFSET 40.9854 0 -1.26872e-05
          CHANNELS 6 Xposition Yposition Zposition Zrotation Xrotation Yrotation
          JOINT Toes_L
          {
            OFFSET 11.7543 0 0
            CHANNELS 6 Xposition Yposition Zposition Zrotation Xrotation Yrotation
            End Site
            {
              OFFSET 0 0 0
            }
          }
        }
      }
    }
    JOINT UpperLeg_R
    {
      OFFSET -2.19251 6.46944 0
      CHANNELS 6 Xposition Yposition Zposition Zrotation Xrotation Yrotation
      JOINT LowerLeg_R
      {
        OFFSET -39.0811 -0.00228153 -0.0401928
        CHANNELS 6 Xposition Yposition Zposition Zrotation Xrotation Yrotation
        JOINT Foot_R
        {
          OFFSET -40.9854 0 0
          CHANNELS 6 Xposition Yposition Zposition Zrotation Xrotation Yrotation
          JOINT Toes_R
          {
            OFFSET -11.7543 0 0
            CHANNELS 6 Xposition Yposition Zposition Zrotation Xrotation Yrotation
            End Site
            {
              OFFSET 0 0 0
            }
          }
        }
      }
    }
  }
}
MOTION
Frames:	4
Frame Time:	0.0333333
0 0 0 0 0 -0 1.26784 85.9116 -31.4381 89.5041 -11.9482 -1.94166 15.7357 5.1072e-06 -5.51765e-07 128.118 85.3773 -129.074 8.98455 -0.406207 -4.3199e-07 -0.441643 5.77427 -1.8886 16.3773 -1.3905e-06 -6.99897e-07 -4.77412 0.303735 -0.204453 6.45672 -1.25837e-06 -1.02172e-07 1.71627 -3.28309 0.166404 12.9942 -0.242716 4.98039 -91.514 4.74622 -87.2847 5.34809 -7.22636e-06 -6.2814e-07 -70.9104 3.89308 23.8884 24.3286 1.87007e-05 4.90208e-06 3.24602 9.2034 -19.5245 22.2916 -9.88446e-07 4.63217e-06 9.41515 5.56056 -9.2141 12.9945 -0.242716 -4.98039 89.2199 7.65102 -99.1606 -5.34813 -1.25947e-06 -3.79883e-06 -50.1388 9.39699 -22.2644 -24.3289 0.000322201 -8.65921e-06 7.17974 7.51148 -43.9443 -22.2915 -0.000108084 -4.47941e-06 5.53587 5.51276 -7.05652 -2.19248 -6.46944 -1.22533e-07 -172.386 -6.84594 -33.8625 39.0811 -6.73843e-06 -1.23785e-05 0.0135653 -0.0531672 15.9113 40.9854 -6.48686e-06 -1.26872e-05 -6.80313 -1.37479 -54.7314 11.7543 -2.30145e-07 3.05095e-06 0.17183 -0.292425 -21.6751 -2.19251 6.46944 -1.45247e-06 171.754 5.72463 -168.512 -39.0811 -0.00228153 -0.0401928 -0.00775173 0.0724602 26.5165 -40.9854 7.72618e-06 5.99936e-06 0.669867 5.31607 -73.4188 -11.7543 -5.6619e-06 -5.58687e-06 0.967914 -1.3374 -28.7282 
0 0 0 0 0 -0 2.27663 85.2775 -25.0836 91.1823 -12.5829 -3.31736 15.7357 5.1072e-06 -5.51765e-07 134.947 85.8918 -136.798 8.98455 -0.406207 -4.3199e-07 -1.85506 5.95837 -3.60644 16.3773 -1.3905e-06 -6.99897e-07 -5.21472 0.183327 0.170026 6.45672 -1.25837e-06 -1.02172e-07 1.87608 -3.24706 1.01068 12.9942 -0.242716 4.98039 -91.6626 5.15332 -87.0919 5.34809 -7.22636e-06 -6.2814e-07 -70.0173 4.07636 24.5535 24.3286 1.87007e-05 4.90208e-06 3.30148 9.92182 -18.5096 22.2916 -9.88446e-07 4.63217e-06 8.96232 5.55624 -9.00331 12.9945 -0.242716 -4.98039 89.1434 8.27068 -99.0659 -5.34813 -1.25947e-06 -3.79883e-06 -51.2705 9.01989 -19.6306 -24.3289 0.000322201 -8.65921e-06 7.22848 7.03848 -45.9944 -22.2915 -0.000108084 -4.47941e-06 5.78453 5.52055 -7.38312 -2.19248 -6.46944 -1.22534e-07 -175.373 -6.98749 -40.1524 39.0811 -6.73843e-06 -1.23785e-05 0.0388736 -0.078125 28.0982 40.9854 -6.48686e-06 -1.26872e-05 -5.60786 0.324772 -48.2261 11.7543 -2.30145e-07 3.05095e-06 0.102538 -0.167228 -19.525 -2.19251 6.46944 -1.45247e-06 168.655 4.64791 -170.17 -39.0811 -0.00228153 -0.0401928 0.0480135 -0.0229943 31.5707 -40.9854 7.72618e-06 5.99936e-06 0.571034 4.54152 -67.5353 -11.7543 -5.6619e-06 -5.58687e-06 1.54029 -2.57513 -38.7506 
0 0 0 0 0 -0 3.04796 84.9555 -18.0679 92.4452 -13.3632 -0.75524 15.7357 5.1072e-06 -5.51765e-07 132.982 85.2338 -135.463 8.98455 -0.406207 -4.3199e-07 -0.641518 6.67935 -4.92519 16.3773 -1.3905e-06 -6.99897e-07 -5.39197 0.0382256 0.198205 6.45672 -1.25837e-06 -1.02172e-07 2.01348 -3.77035 1.91607 12.9942 -0.242716 4.98039 -91.673 5.2356 -87.252 5.34809 -7.22636e-06 -6.2814e-07 -69.0237 4.12758 23.5406 24.3286 1.87007e-05 4.90208e-06 3.08038 9.90153 -17.3777 22.2916 -9.88446e-07 4.63217e-06 8.68725 5.55131 -8.76719 12.9945 -0.242716 -4.98039 89.1684 8.56132 -99.4312 -5.34813 -1.25947e-06 -3.79883e-06 -53.8163 8.07261 -14.7348 -24.3289 0.000322201 -8.65921e-06 6.96509 6.35173 -47.8414 -22.2915 -0.000108084 -4.47941e-06 5.95197 5.53475 -8.0058 -2.19248 -6.46944 -1.22534e-07 -177.095 -7.07596 -39.3893 39.0811 -6.73843e-06 -1.23785e-05 0.0911354 -0.116615 38.8629 40.9854 -6.48686e-06 -1.26872e-05 -5.84371 1.40766 -51.9552 11.7543 -2.30145e-07 3.05095e-06 0.0336821 -0.0528334 -17.5188 -2.19251 6.46944 -1.45247e-06 166.275 3.14426 -170.225 -39.0811 -0.00228153 -0.0401928 0.162906 -0.154568 39.0457 -40.9854 7.72618e-06 5.99936e-06 1.68592 1.93265 -55.1363 -11.7543 -5.6619e-06 -5.58687e-06 1.891 -3.90672 -48.8714 
0 0 0 0 0 -0 3.79975 85.1968 -11.7637 93.0108 -13.5756 1.49559 15.7357 5.1072e-06 -5.51765e-07 129.634 84.5547 -132.308 8.98455 -0.406207 -4.3199e-07 0.801901 7.107 -5.39942 16.3773 -1.3905e-06 -6.99897e-07 -5.29194 0.0190224 -0.0827589 6.45672 -1.25837e-06 -1.02172e-07 1.78297 -4.06416 1.61997 12.9942 -0.242716 4.98039 -91.7255 5.59476 -87.8295 5.34809 -7.22636e-06 -6.2814e-07 -67.672 3.85153 20.7041 24.3286 1.87007e-05 4.90208e-06 2.99835 9.99651 -16.7907 22.2916 -9.88446e-07 4.63217e-06 8.72118 5.5433 -8.39602 12.9945 -0.242716 -4.98039 89.2982 7.9111 -99.9143 -5.34813 -1.25947e-06 -3.79883e-06 -57.3998 6.97036 -10.1785 -24.3289 0.000322201 -8.65921e-06 5.72815 5.30423 -47.3374 -22.2915 -0.000108084 -4.47941e-06 5.78053 5.54211 -8.33999 -2.19248 -6.46944 -1.22534e-07 -178.75 -7.86719 -36.2275 39.0811 -6.73843e-06 -1.23785e-05 0.0879627 -0.0882315 45.1187 40.9854 -6.48686e-06 -1.26872e-05 -3.35666 2.24562 -57.8589 11.7543 -2.30145e-07 3.05095e-06 -0.00329913 0.00508473 -16.4864 -2.19251 6.46944 -1.45247e-06 165.307 1.84335 -173.702 -39.0811 -0.00228153 -0.0401928 0.309844 -0.244732 49.0172 -40.9854 7.72618e-06 5.99936e-06 0.905287 -3.15133 -39.4794 -11.7543 -5.6619e-06 -5.58687e-06 1.53922 -2.5722 -38.7279 
